<?xml version="1.0" encoding="utf-8"?>
<!-- Generator: Adobe Illustrator 23.0.1, SVG Export Plug-In . SVG Version: 6.00 Build 0)  -->
<svg version="1.1" id="Capa_1" xmlns="http://www.w3.org/2000/svg" xmlns:xlink="http://www.w3.org/1999/xlink" x="0px" y="0px"
	 viewBox="0 0 512 512" style="enable-background:new 0 0 512 512;" xml:space="preserve">
<g>
	<g>
		<path d="M438,158.6l-85.9-91c-5.3-5.6-14.1-5.9-19.7-0.6c-5.6,5.3-5.9,14.1-0.6,19.7l76.9,81.5l-76.9,81.5
			c-5.3,5.6-5,14.4,0.6,19.7c2.7,2.5,6.1,3.8,9.6,3.8c3.7,0,7.4-1.5,10.1-4.4l85.9-91C443.1,172.4,443.1,164,438,158.6z"/>
	</g>
</g>
<g>
	<g>
		<path d="M180.2,249.7l-76.9-81.5l76.9-81.5c5.3-5.6,5-14.4-0.6-19.7c-5.6-5.3-14.4-5-19.7,0.6l-85.9,91c-5.1,5.4-5.1,13.8,0,19.1
			l85.9,91c2.7,2.9,6.4,4.4,10.1,4.4c3.4,0,6.9-1.3,9.6-3.8C185.2,264.1,185.5,255.3,180.2,249.7z"/>
	</g>
</g>
<g>
	<g>
		<path d="M278.5,20.7c-7.6-1.2-14.7,4.1-15.9,11.7l-40.9,267.5c-1.2,7.6,4.1,14.7,11.7,15.9c0.7,0.1,1.4,0.2,2.1,0.2
			c6.8,0,12.7-4.9,13.8-11.8l40.9-267.5C291.4,28.9,286.1,21.8,278.5,20.7z"/>
	</g>
</g>
<g>
	<path d="M188.2,484.1c0.6,1.6,0.9,2.9,0.9,3.9c0,1-0.2,1.8-0.8,2.3c-0.6,0.5-1.6,0.8-2.9,1c-1.4,0.1-3.2,0.2-5.5,0.2
		c-2.3,0-4.1-0.1-5.5-0.2c-1.4-0.1-2.4-0.3-3.1-0.6c-0.7-0.3-1.2-0.6-1.6-1.1c-0.3-0.4-0.6-1-0.9-1.7l-12.3-34.9H96.9l-11.7,34.4
		c-0.2,0.7-0.5,1.2-0.9,1.7c-0.4,0.5-0.9,0.9-1.6,1.2c-0.7,0.3-1.7,0.6-3,0.7c-1.3,0.1-3,0.2-5,0.2c-2.1,0-3.9-0.1-5.3-0.3
		c-1.4-0.2-2.3-0.5-2.9-1.1c-0.6-0.5-0.8-1.3-0.8-2.3c0-1,0.3-2.3,0.9-3.9l48.1-133.1c0.3-0.8,0.7-1.5,1.2-2
		c0.5-0.5,1.2-0.9,2.1-1.2c0.9-0.3,2.1-0.5,3.5-0.6c1.4-0.1,3.3-0.2,5.5-0.2c2.4,0,4.3,0.1,5.9,0.2c1.6,0.1,2.8,0.3,3.8,0.6
		c1,0.3,1.7,0.7,2.2,1.3c0.5,0.6,0.9,1.2,1.2,2L188.2,484.1z M126.5,366.6h-0.1L101.7,438h49.8L126.5,366.6z"/>
	<path d="M320.4,483c0,1.5-0.2,2.7-0.7,3.8c-0.5,1-1.1,1.9-1.9,2.5c-0.8,0.7-1.7,1.1-2.7,1.4c-1,0.3-2,0.4-3,0.4h-6.3
		c-2,0-3.7-0.2-5.2-0.6c-1.5-0.4-2.9-1.1-4.2-2.2c-1.3-1.1-2.7-2.5-4-4.4c-1.3-1.8-2.8-4.2-4.3-7.1l-43.7-81.5
		c-2.3-4.2-4.6-8.6-6.9-13.2c-2.3-4.6-4.5-9.1-6.5-13.5h-0.2c0.1,5.3,0.3,10.7,0.3,16.3c0.1,5.5,0.1,11,0.1,16.5V488
		c0,0.5-0.2,1-0.5,1.5c-0.3,0.5-0.8,0.8-1.6,1.1c-0.7,0.3-1.7,0.5-2.9,0.7c-1.2,0.2-2.7,0.3-4.6,0.3c-1.9,0-3.4-0.1-4.6-0.3
		c-1.2-0.2-2.2-0.4-2.9-0.7c-0.7-0.3-1.2-0.6-1.5-1.1c-0.3-0.5-0.5-1-0.5-1.5V355.7c0-3,0.8-5.1,2.5-6.3c1.7-1.3,3.5-1.9,5.5-1.9
		h9.4c2.2,0,4.1,0.2,5.5,0.6c1.5,0.4,2.8,1,4,1.8c1.2,0.8,2.3,2,3.4,3.5c1.1,1.5,2.3,3.4,3.5,5.7l33.6,62.9c2.1,3.8,4.1,7.6,6,11.2
		c1.9,3.7,3.8,7.3,5.6,10.8c1.8,3.5,3.6,7,5.3,10.5c1.7,3.4,3.5,6.9,5.2,10.4h0.1c-0.1-5.8-0.2-11.9-0.3-18.2
		c0-6.3-0.1-12.4-0.1-18.2v-77.7c0-0.5,0.2-1,0.5-1.4c0.3-0.4,0.8-0.8,1.6-1.2c0.7-0.3,1.7-0.6,2.9-0.7c1.2-0.1,2.8-0.2,4.7-0.2
		c1.7,0,3.2,0.1,4.4,0.2c1.2,0.1,2.2,0.4,2.9,0.7c0.7,0.3,1.2,0.7,1.5,1.2c0.3,0.4,0.5,0.9,0.5,1.4V483z"/>
	<path d="M404.1,435.1V488c0,0.6-0.1,1.1-0.4,1.6s-0.8,0.8-1.5,1.1c-0.7,0.3-1.7,0.5-3,0.7c-1.2,0.2-2.8,0.3-4.5,0.3
		c-1.8,0-3.4-0.1-4.6-0.3c-1.2-0.2-2.2-0.4-3-0.7c-0.8-0.3-1.3-0.6-1.6-1.1s-0.4-1-0.4-1.6v-52.8l-40.5-80.8c-0.8-1.7-1.3-3-1.5-4
		c-0.2-1,0-1.7,0.6-2.2c0.6-0.5,1.6-0.8,3-1c1.4-0.1,3.4-0.2,5.8-0.2c2.2,0,4,0.1,5.4,0.2c1.4,0.1,2.5,0.4,3.3,0.6
		c0.8,0.3,1.4,0.6,1.8,1.1c0.4,0.5,0.8,1.1,1.2,1.8l19.8,41.2c1.8,3.9,3.7,8,5.5,12.3c1.8,4.3,3.7,8.6,5.6,13h0.2
		c1.7-4.2,3.4-8.4,5.2-12.6c1.8-4.2,3.6-8.3,5.5-12.3l19.9-41.4c0.2-0.7,0.5-1.4,0.9-1.9c0.4-0.5,1-0.9,1.7-1.2
		c0.7-0.3,1.7-0.5,2.9-0.6c1.3-0.1,2.8-0.2,4.8-0.2c2.7,0,4.7,0.1,6.3,0.3c1.5,0.2,2.6,0.5,3.2,1.1c0.6,0.5,0.8,1.3,0.6,2.2
		c-0.2,1-0.7,2.3-1.5,3.9L404.1,435.1z"/>
</g>
</svg>
