<?xml version="1.0" encoding="utf-8"?>
<!-- Generator: Adobe Illustrator 23.0.1, SVG Export Plug-In . SVG Version: 6.00 Build 0)  -->
<svg version="1.1" id="Layer_1" xmlns="http://www.w3.org/2000/svg" xmlns:xlink="http://www.w3.org/1999/xlink" x="0px" y="0px"
	 viewBox="0 0 1920 1080" style="enable-background:new 0 0 1920 1080;" xml:space="preserve">
<style type="text/css">
	.st0{fill:#F5F5F5;}
</style>
<g>
	<polygon class="st0" points="260.4,99.7 206.1,297.9 404.9,245.9 	"/>
</g>
<g>
	<polygon class="st0" points="1290.4,279.7 1236.1,477.9 1434.9,425.9 	"/>
</g>
<g>
	<polygon class="st0" points="1318.4,755.7 1264.1,953.9 1462.9,901.9 	"/>
</g>
<rect x="1690" y="541" transform="matrix(0.9204 0.391 -0.391 0.9204 380.4091 -640.4352)" class="st0" width="146" height="146"/>
<rect x="917" y="98" transform="matrix(0.9204 0.391 -0.391 0.9204 145.6673 -373.466)" class="st0" width="146" height="146"/>
<rect x="235" y="830" transform="matrix(0.9204 0.391 -0.391 0.9204 377.5805 -48.5417)" class="st0" width="146" height="146"/>
<polygon class="st0" points="162.1,496.4 177,443.4 118.3,426.9 103.4,479.9 50.4,465 33.9,523.7 86.9,538.6 72,591.6 130.7,608.1 
	145.6,555.1 198.6,570 215.1,511.3 "/>
<polygon class="st0" points="964.1,713.4 979,660.4 920.3,643.9 905.4,696.9 852.4,682 835.9,740.7 888.9,755.6 874,808.6 
	932.7,825.1 947.6,772.1 1000.6,787 1017.1,728.3 "/>
<polygon class="st0" points="1717.1,149.4 1732,96.4 1673.3,79.9 1658.4,132.9 1605.4,118 1588.9,176.7 1641.9,191.6 1627,244.6 
	1685.7,261.1 1700.6,208.1 1753.6,223 1770.1,164.3 "/>
<circle class="st0" cx="608" cy="467" r="72"/>
<circle class="st0" cx="1661" cy="943" r="72"/>
</svg>
