<svg version="1.1" id="Layer_1" xmlns="http://www.w3.org/2000/svg" xmlns:xlink="http://www.w3.org/1999/xlink" x="0px" y="0px" style="enable-background:new 0 0 250 250;" xml:space="preserve" viewBox="32.68 134.18 184.72 83.22">
<style type="text/css">
	.st0{fill:#FFFFFF;}
</style>
<path class="st0" d="M89.3,214.4c0,1.7-1.4,3-3,3l0,0H75.8c-1.7,0-3-1.4-3-3v-37.5c0.1-0.5-0.2-1.1-0.6-1.4l-1.6-1.7  c-0.4-0.4-0.9-0.7-1.5-0.6h-9.5c-1.3-0.2-2.6,0.4-3.4,1.4l-6,6.3c-0.9,0.8-1.4,2-1.3,3.2v14.2c-0.1,0.5,0.1,1.1,0.6,1.4l1.6,1.7  c0.4,0.5,0.9,0.7,1.5,0.6h12.1c1.5,0.2,2.6,1.5,2.6,3v9.3c0,1.7-1.4,3-3,3H51.8c-6.3,0-8.5-1.1-11.7-4.3l-2.9-2.9  c-3.8-3.8-4.5-5.5-4.5-11.8v-15.6c0-6.3,0.7-8,4.5-11.8l8.7-8.6c3.2-3.2,5.5-4.3,11.7-4.3h12.5c6.3,0,8.5,1.1,11.7,4.3l2.9,2.9  c3.8,3.8,4.5,5.5,4.5,11.8L89.3,214.4z M150.2,217.4h-10.4c-1.7,0-3-1.4-3-3l0,0v-37.5c0.1-0.5-0.2-1.1-0.6-1.4l-1.6-1.7  c-0.4-0.5-0.9-0.7-1.5-0.6h-9.5c-1.3-0.2-2.6,0.3-3.4,1.3l-6,6.3c-1,0.8-1.4,2-1.3,3.2v14.2c0,0.5,0.2,1.1,0.6,1.4l1.6,1.7  c0.3,0.6,0.9,0.9,1.5,0.8h12.1c1.4,0.3,2.5,1.5,2.5,3v9.3c0,1.7-1.3,3-3,3h-12.5c-6.3,0-8.5-1.1-11.7-4.3l-2.9-2.9  c-3.8-3.8-4.5-5.5-4.5-11.8v-15.6c0-6.3,0.7-8,4.5-11.8l8.8-8.6c3.2-3.2,5.5-4.3,11.7-4.3h12.5c1,0,1.9,0,2.6,0v-20.9  c0-1.7,1.4-3,3-3l0,0h10.4c1.7,0,3,1.4,3,3v77.3C153.2,216,151.9,217.4,150.2,217.4z M217.3,214.3c0,1.7-1.4,3-3,3h-10.4  c-1.7,0-3-1.4-3-3l0,0v-37.4c0.1-0.5-0.2-1.1-0.6-1.4l-1.6-1.7c-0.3-0.4-0.9-0.7-1.5-0.6h-9.5c-1.3-0.2-2.6,0.3-3.4,1.3l-6,6.3  c-0.9,0.8-1.4,2.1-1.2,3.3v14.2c-0.1,0.5,0.1,1.1,0.6,1.4l1.6,1.7c0.4,0.4,0.9,0.7,1.5,0.6h12.1c1.5,0.2,2.6,1.5,2.6,3v9.3  c0,1.7-1.4,3-3,3l0,0H180c-6.3,0-8.5-1.1-11.7-4.3l-2.9-2.9c-3.8-3.8-4.5-5.5-4.5-11.9v-15.6c0-6.3,0.7-8,4.5-11.8l8.7-8.6  c3.2-3.2,5.5-4.3,11.7-4.3h12.5c6.3,0,8.5,1.1,11.7,4.3l2.9,2.9l0,0c3.8,3.8,4.5,5.5,4.5,11.8L217.3,214.3z"/>
</svg>