<?xml version="1.0" encoding="UTF-8" standalone="no"?>
<!DOCTYPE svg PUBLIC "-//W3C//DTD SVG 1.1//EN" "http://www.w3.org/Graphics/SVG/1.1/DTD/svg11.dtd">
<svg version="1.1" xmlns="http://www.w3.org/2000/svg" xmlns:xlink="http://www.w3.org/1999/xlink" preserveAspectRatio="xMidYMid meet" viewBox="0 0 640 640" width="640" height="640"><defs><path d="M201.23 534.81C201.23 592.86 156.14 640 100.61 640C45.08 640 0 592.86 0 534.81C0 476.75 45.08 429.61 100.61 429.61C156.14 429.61 201.23 476.75 201.23 534.81Z" id="c4kgySj5rO"></path><path d="M136.48 368.47C136.48 380.39 126.97 390.07 115.25 390.07C103.54 390.07 94.03 380.39 94.03 368.47C94.03 356.54 103.54 346.86 115.25 346.86C126.97 346.86 136.48 356.54 136.48 368.47Z" id="fql5L7mNv"></path><path d="M251.97 364.42C251.97 385.4 235.45 402.44 215.1 402.44C194.74 402.44 178.22 385.4 178.22 364.42C178.22 343.44 194.74 326.4 215.1 326.4C235.45 326.4 251.97 343.44 251.97 364.42Z" id="mWON3d5Q3"></path><path d="M207.69 250.99C207.69 279.13 184.79 301.97 156.58 301.97C128.38 301.97 105.48 279.13 105.48 250.99C105.48 222.85 128.38 200 156.58 200C184.79 200 207.69 222.85 207.69 250.99Z" id="a4CLJ26eH"></path><path d="M273.19 196.79C273.19 208.71 263.68 218.39 251.97 218.39C240.25 218.39 230.74 208.71 230.74 196.79C230.74 184.86 240.25 175.18 251.97 175.18C263.68 175.18 273.19 184.86 273.19 196.79Z" id="c1pIZOXQO3"></path></defs><g><g><g><use xlink:href="#c4kgySj5rO" opacity="1" fill="#4d4470" fill-opacity="1"></use></g><g><use xlink:href="#fql5L7mNv" opacity="1" fill="#4d4470" fill-opacity="1"></use></g><g><use xlink:href="#mWON3d5Q3" opacity="1" fill="#4d4470" fill-opacity="1"></use></g><g><use xlink:href="#a4CLJ26eH" opacity="1" fill="#4d4470" fill-opacity="1"></use></g><g><use xlink:href="#c1pIZOXQO3" opacity="1" fill="#4d4470" fill-opacity="1"></use></g></g></g></svg>