<?xml version="1.0" encoding="UTF-8" standalone="no"?>
<!DOCTYPE svg PUBLIC "-//W3C//DTD SVG 1.1//EN" "http://www.w3.org/Graphics/SVG/1.1/DTD/svg11.dtd">
<svg version="1.1" xmlns="http://www.w3.org/2000/svg" xmlns:xlink="http://www.w3.org/1999/xlink" preserveAspectRatio="xMidYMid meet" viewBox="0 0 640 640" width="640" height="640"><defs><path d="M164.64 580.22C164.64 638.28 119.56 685.42 64.03 685.42C8.5 685.42 -36.58 638.28 -36.58 580.22C-36.58 522.16 8.5 475.03 64.03 475.03C119.56 475.03 164.64 522.16 164.64 580.22Z" id="aLg91tCJN"></path><path d="M87.62 422.67C87.62 434.59 78.11 444.27 66.4 444.27C54.68 444.27 45.17 434.59 45.17 422.67C45.17 410.74 54.68 401.06 66.4 401.06C78.11 401.06 87.62 410.74 87.62 422.67Z" id="aNA7yjEH0"></path><path d="M211.67 401.06C211.67 422.04 195.15 439.08 174.8 439.08C154.45 439.08 137.93 422.04 137.93 401.06C137.93 380.08 154.45 363.04 174.8 363.04C195.15 363.04 211.67 380.08 211.67 401.06Z" id="b4tHPqAI6d"></path><path d="M156.54 301.37C156.54 329.51 133.64 352.35 105.44 352.35C77.23 352.35 54.33 329.51 54.33 301.37C54.33 273.23 77.23 250.38 105.44 250.38C133.64 250.38 156.54 273.23 156.54 301.37Z" id="ahC1YQzL"></path><path d="M231.21 246.41C231.21 258.33 221.7 268.01 209.98 268.01C198.27 268.01 188.76 258.33 188.76 246.41C188.76 234.48 198.27 224.8 209.98 224.8C221.7 224.8 231.21 234.48 231.21 246.41Z" id="a51NnbOgCp"></path></defs><g><g><g><use xlink:href="#aLg91tCJN" opacity="1" fill="#4d4470" fill-opacity="1"></use></g><g><use xlink:href="#aNA7yjEH0" opacity="1" fill="#4d4470" fill-opacity="1"></use></g><g><use xlink:href="#b4tHPqAI6d" opacity="1" fill="#4d4470" fill-opacity="1"></use></g><g><use xlink:href="#ahC1YQzL" opacity="1" fill="#4d4470" fill-opacity="1"></use></g><g><use xlink:href="#a51NnbOgCp" opacity="1" fill="#4d4470" fill-opacity="1"></use></g></g></g></svg>