<svg width="19" height="19" viewBox="0 0 19 19" fill="none" xmlns="http://www.w3.org/2000/svg">
<path d="M16.283 4.75C17.0036 4.75 17.6947 5.03625 18.2042 5.54579C18.7137 6.05533 19 6.74641 19 7.467V11.058C19 11.7786 18.7137 12.4697 18.2042 12.9792C17.6947 13.4887 17.0036 13.775 16.283 13.775H9.5C9.5 14.1455 9.804 14.687 10.1745 14.687H14.25V16.283C14.25 17.0036 13.9637 17.6947 13.4542 18.2042C12.9447 18.7137 12.2536 19 11.533 19H7.467C6.74641 19 6.05533 18.7137 5.54579 18.2042C5.03625 17.6947 4.75 17.0036 4.75 16.283V12.7205C4.75 11.2195 5.966 10.013 7.467 10.013H12.4545C13.9555 10.013 15.162 8.797 15.162 7.296V4.75H16.283ZM12.217 15.9505C11.837 15.9505 11.533 16.2355 11.533 16.796C11.533 17.3565 11.837 17.4705 12.217 17.4705C12.3056 17.4705 12.3933 17.4531 12.4751 17.4192C12.557 17.3853 12.6313 17.3356 12.6939 17.2729C12.7566 17.2103 12.8063 17.136 12.8402 17.0541C12.8741 16.9723 12.8915 16.8846 12.8915 16.796C12.8915 16.2355 12.5875 15.9505 12.217 15.9505ZM2.717 14.25C1.216 14.25 0 13.034 0 11.533V7.942C0 6.441 1.216 5.225 2.717 5.225H9.5C9.5 4.8545 9.196 4.313 8.8255 4.313H4.75V2.717C4.75 1.216 5.966 0 7.467 0H11.533C13.034 0 14.25 1.216 14.25 2.717V6.2795C14.25 7.7805 13.034 8.987 11.533 8.987H6.5455C5.0445 8.987 3.838 10.203 3.838 11.704V14.25H2.717ZM6.783 3.0495C7.163 3.0495 7.467 2.7645 7.467 2.204C7.467 1.6435 7.163 1.5295 6.783 1.5295C6.4125 1.5295 6.1085 1.6435 6.1085 2.204C6.1085 2.7645 6.4125 3.0495 6.783 3.0495Z" fill="white"/>
</svg>
