<?xml version="1.0" encoding="utf-8"?>
<!-- Generator: Adobe Illustrator 23.0.1, SVG Export Plug-In . SVG Version: 6.00 Build 0)  -->
<svg version="1.1" id="Capa_1" xmlns="http://www.w3.org/2000/svg" xmlns:xlink="http://www.w3.org/1999/xlink" x="0px" y="0px"
	 viewBox="0 0 512 512" style="enable-background:new 0 0 512 512;" xml:space="preserve">
<g>
	<g>
		<path d="M235.4,24.7v466.7c0,11.4,9.2,20.6,20.6,20.6c11.4,0,20.6-9.2,20.6-20.6V24.7c0-11.4-9.2-20.6-20.6-20.6
			C244.6,4.1,235.4,13.3,235.4,24.7z"/>
	</g>
</g>
<g>
	<g>
		<path d="M241.4,6L39.7,207.8c-8,8-8,21.1,0,29.1c8,8,21.1,8,29.1,0L256,49.7l187.2,187.2c8,8,21.1,8,29.1,0c4-4,6-9.3,6-14.6
			s-2-10.5-6-14.6L270.6,6C262.5-2,249.5-2,241.4,6z"/>
	</g>
</g>
</svg>
